<svg id="Layer_1" data-name="Layer 1" xmlns="http://www.w3.org/2000/svg" viewBox="0 0 752.51 157.6">
  <defs>
    <style>
      .cls-1 {
        fill: #FFD700;
        stroke: #1a1a1a;
        stroke-width: 5px;
        paint-order: stroke fill;
      }
    </style>
  </defs>
  <g>
    <g>
      <g>
        <path fill="#FFD700" d="M297.73,20.92a3.38,3.38,0,0,0-3.12,2.13L283.93,51.86a3.09,3.09,0,0,0-.21,1.15,3.13,3.13,0,0,0,.65,1.92,3.07,3.07,0,0,0,2.69,1.42h21.3a3.33,3.33,0,0,0,3.12-2.19l1.42-4a3.09,3.09,0,0,1,1.59-1.81l1.48-.82a3.17,3.17,0,0,1,1.59-.38L338.09,47a3.08,3.08,0,0,1,1.54.38l.05.06a3.33,3.33,0,0,1,1.76,2.9,4.84,4.84,0,0,1-.17,1.15L333,74.31a3.15,3.15,0,0,1-1.54,1.81l-1.47.77a3.33,3.33,0,0,1-1.59.38H249.82a3.27,3.27,0,0,1-1.54-.38h-.05A3.37,3.37,0,0,1,246.48,74a5.57,5.57,0,0,1,.22-1.26L272.55,2.9a3,3,0,0,1,1.58-1.81l1.48-.76a3.08,3.08,0,0,1,1.53-.39h78.53a3.28,3.28,0,0,1,1.59.39h.06A3.24,3.24,0,0,1,359,3.18a5.34,5.34,0,0,1-.17,1.26l-5.64,15.22a3.37,3.37,0,0,1-1.75,1.81q-11.26,5.18-26.29,11.88a3.85,3.85,0,0,1-1.48.27,2.88,2.88,0,0,1-2.13-.87,3.06,3.06,0,0,1-1-2.36,4.84,4.84,0,0,1,.16-1.2l1.42-3.83a3.34,3.34,0,0,0,.22-1.27,3.13,3.13,0,0,0-.6-1.8A3.07,3.07,0,0,0,319,20.92Z"/>
        <path fill="#FFD700" d="M371,2.57a2,2,0,0,1,1-1.2l2.08-1.1a2.33,2.33,0,0,1,1-.27h22.13a2.33,2.33,0,0,1,1,.27l1,.55a2.19,2.19,0,0,1,1.2,2,3.76,3.76,0,0,1-.11.82L382,53.28a2.23,2.23,0,0,0-.17.82,2.56,2.56,0,0,0,.44,1.32,2.14,2.14,0,0,0,1.81.93h22.56a2.19,2.19,0,0,0,2.08-1.48L428.17,2.52a2.3,2.3,0,0,1,1-1.21l2-1a2.33,2.33,0,0,1,1-.27h22a2.73,2.73,0,0,1,1.09.27l1,.55a2.19,2.19,0,0,1,1.21,2,4.49,4.49,0,0,1-.11.82l-26.4,71.14A2.22,2.22,0,0,1,430,76L428,77a2.18,2.18,0,0,1-1,.28H347.84a2.3,2.3,0,0,1-1-.22l-1.09-.6a2.28,2.28,0,0,1-1.2-1.92,2.64,2.64,0,0,1,.16-.87Z"/>
        <path fill="#FFD700" d="M467.32,20.92a3.2,3.2,0,0,1-1.59-.39h-.05a3.36,3.36,0,0,1-1.76-2.84,5.48,5.48,0,0,1,.22-1.26l5-13.47a3,3,0,0,1,1.59-1.81l1.47-.77A3.17,3.17,0,0,1,473.78,0h78.48a3.17,3.17,0,0,1,1.59.38,3.47,3.47,0,0,1,1.75,2.91,4.88,4.88,0,0,1-.17,1.2l-5.69,15.28a3.16,3.16,0,0,1-1.48,1.75c-2,1.1-4,2.19-6.08,3.34Q520.09,37.27,497,50.05c-1,.61-1.53,1.15-1.59,1.76s-.11,1-.11,1.15a3.55,3.55,0,0,0,.77,2.13,3,3,0,0,0,2.63,1.21l32.58.05a3.4,3.4,0,0,1,1.65.38l.05.06a3.24,3.24,0,0,1,1.7,2.85,5.34,5.34,0,0,1-.17,1.26l-5,13.41a3,3,0,0,1-1.59,1.81l-1.48.77a3,3,0,0,1-1.53.38H446.4a3.21,3.21,0,0,1-1.53-.38A3.33,3.33,0,0,1,443.06,74a5.1,5.1,0,0,1,.22-1.2L449,57.45a3.18,3.18,0,0,1,1.48-1.76l50.66-28.47c1-.61,1.53-1.21,1.64-1.81s.11-1,.11-1.15a3.46,3.46,0,0,0-.77-2.08,3.06,3.06,0,0,0-2.62-1.26Z"/>
        <path fill="#FFD700" d="M564.52,20.92a3.17,3.17,0,0,1-1.59-.39h-.06a3.35,3.35,0,0,1-1.75-2.84,5.48,5.48,0,0,1,.22-1.26l5-13.47a3.06,3.06,0,0,1,1.59-1.81l1.48-.77A3.12,3.12,0,0,1,571,0h78.47A3.14,3.14,0,0,1,651,.38a3.47,3.47,0,0,1,1.75,2.91,4.84,4.84,0,0,1-.16,1.2l-5.7,15.28a3.08,3.08,0,0,1-1.48,1.75c-2,1.1-4.05,2.19-6.08,3.34q-22.1,12.41-45.17,25.19c-1,.61-1.54,1.15-1.59,1.76s-.11,1-.11,1.15a3.53,3.53,0,0,0,.76,2.13,3.06,3.06,0,0,0,2.63,1.21l32.59.05a3.33,3.33,0,0,1,1.64.38l.06.06a3.23,3.23,0,0,1,1.69,2.85,5.3,5.3,0,0,1-.16,1.26l-5,13.41a3,3,0,0,1-1.58,1.81l-1.48.77a3.08,3.08,0,0,1-1.54.38H543.59a3.24,3.24,0,0,1-1.53-.38,3.34,3.34,0,0,1-1.8-2.91,5.05,5.05,0,0,1,.21-1.2l5.7-15.33a3.14,3.14,0,0,1,1.48-1.76L598.3,27.22c1-.61,1.54-1.21,1.65-1.81s.1-1,.1-1.15a3.51,3.51,0,0,0-.76-2.08,3.08,3.08,0,0,0-2.63-1.26Z"/>
        <path fill="#FFD700" d="M651.86,47.1a3.17,3.17,0,0,1-1.59-.39,3.31,3.31,0,0,1-1.81-2.9,3.72,3.72,0,0,1,.22-1.26L663.3,3a3.23,3.23,0,0,1,1.59-1.81l1.48-.82A3.28,3.28,0,0,1,668-.06h21.35a3.12,3.12,0,0,1,1.54.39,3.39,3.39,0,0,1,1.75,2.9,5.34,5.34,0,0,1-.17,1.26l-6.35,17.14a3.21,3.21,0,0,0,.44,3.12,3.1,3.1,0,0,0,2.74,1.37h20.31a3.36,3.36,0,0,0,3.13-2.19l7.83-21a3.06,3.06,0,0,1,1.59-1.81l1.47-.76a3.12,3.12,0,0,1,1.54-.39h21.36a3.44,3.44,0,0,1,1.58.39,3.26,3.26,0,0,1,1.7,2.9,5.3,5.3,0,0,1-.16,1.26l-1.37,3.72L734.93,44.14A3.26,3.26,0,0,1,733.34,46l-1.42.76a3.33,3.33,0,0,1-1.59.39H707.22a3.24,3.24,0,0,0-3.12,2.19l-9.26,25a3.22,3.22,0,0,1-1.58,1.81l-1.43.77a3.44,3.44,0,0,1-1.59.38H669.65A3.35,3.35,0,0,1,666.26,74a3.49,3.49,0,0,1,.22-1.26l7.77-21.08a5,5,0,0,0,.17-1.26,3.22,3.22,0,0,0-3.29-3.28Z"/>
      </g>
      <g>
        <path fill="#FFD700" d="M263.38,106.18a3.07,3.07,0,0,0-2.85,1.95l-9.74,26.29a2.73,2.73,0,0,0-.2,1,2.85,2.85,0,0,0,.6,1.75,2.79,2.79,0,0,0,2.45,1.3h19.44a3,3,0,0,0,2.84-2l1.3-3.7a2.79,2.79,0,0,1,1.45-1.64l1.35-.75a3,3,0,0,1,1.45-.35l18.74,0a2.71,2.71,0,0,1,1.39.35l.06,0a3,3,0,0,1,1.59,2.65,4.4,4.4,0,0,1-.15,1l-7.59,20.79a2.87,2.87,0,0,1-1.4,1.65l-1.35.7a3,3,0,0,1-1.45.35H219.66a2.9,2.9,0,0,1-1.4-.35h0a3.05,3.05,0,0,1-1.6-2.6,5.62,5.62,0,0,1,.19-1.15L240.4,89.75a2.78,2.78,0,0,1,1.45-1.65l1.35-.7a2.77,2.77,0,0,1,1.4-.35h71.65a3,3,0,0,1,1.44.35h.05a3,3,0,0,1,1.55,2.6,4.91,4.91,0,0,1-.15,1.15L314,105a3,3,0,0,1-1.6,1.65q-10.27,4.71-24,10.84a3.49,3.49,0,0,1-1.34.25,2.64,2.64,0,0,1-1.95-.8,2.78,2.78,0,0,1-.95-2.15,4.46,4.46,0,0,1,.15-1.1l1.3-3.5a3.1,3.1,0,0,0,.2-1.15,2.84,2.84,0,0,0-.55-1.65,2.8,2.8,0,0,0-2.45-1.25Z"/>
        <path fill="#FFD700" d="M332.83,87.35a2.65,2.65,0,0,1,1.19-.3h71.85a2.68,2.68,0,0,1,1.25.3l.45.25a2.61,2.61,0,0,1,1.4,2.3,2.83,2.83,0,0,1-.15.9l-13.64,36.82a2.36,2.36,0,0,1-1.25,1.35l-1.45.8a2.63,2.63,0,0,1-1.2.3H375.45a2.35,2.35,0,0,0-2.05,1,3.23,3.23,0,0,0-.55,1.55,3.33,3.33,0,0,0,.35,1.29l11.34,19.84a2.26,2.26,0,0,1,.35,1.25,2.17,2.17,0,0,1-.2.95,2.55,2.55,0,0,1-2.4,1.65H360.06a2.62,2.62,0,0,1-2.2-1.3L345,134.22a2.68,2.68,0,0,0-2.25-1.3h-.2a2.6,2.6,0,0,0-2.2,1.69l-7.59,20.49a2.52,2.52,0,0,1-1.2,1.4l-1.5.8a2.66,2.66,0,0,1-1.2.3H309.24a2.37,2.37,0,0,1-1.25-.35l-.5-.25a2.57,2.57,0,0,1-1.29-2.2,3.77,3.77,0,0,1,.14-1L330,89.6a2.57,2.57,0,0,1,1.2-1.4Zm11.89,35.52a3.73,3.73,0,0,0-.15,1,2.3,2.3,0,0,0,.9,1.85,2.51,2.51,0,0,0,1.6.65,3.38,3.38,0,0,0,1.3-.35l26.48-15q1.13-.67,1.2-1.35c.05-.45.09-.7.09-.85a2.76,2.76,0,0,0-.59-1.7,2.26,2.26,0,0,0-2-.9H352.61a2.57,2.57,0,0,0-2.4,1.7Z"/>
        <path fill="#FFD700" d="M422.51,87.3a2.92,2.92,0,0,1,1.14-.25h72a3,3,0,0,1,1.15.25l.65.35a2.38,2.38,0,0,1,1.25,2,2.83,2.83,0,0,1-.15.9l-4.85,13.09a2,2,0,0,1-1.1,1.24l-1.64.95a3,3,0,0,1-1.15.26H442.44a2.32,2.32,0,0,0-2.2,1.59,2.83,2.83,0,0,0-.15.9,2.1,2.1,0,0,0,.4,1.3,2.25,2.25,0,0,0,1.95,1H482a2,2,0,0,1,1.8.8,2.79,2.79,0,0,1,.6,1.65v.3a2.39,2.39,0,0,1-1.2,1.7l-25.08,14.34a2.38,2.38,0,0,1-1.2.3h-9.09c-2.4,0-7.15,0-14.24,0a2.36,2.36,0,0,0-2.2,1.55L430,135.21a2.54,2.54,0,0,0-.15.85,2.3,2.3,0,0,0,.45,1.35,2.25,2.25,0,0,0,1.95,1c8.84,0,17.64,0,26.28.05,5.94,0,11.94,0,18,0a3,3,0,0,1,1.15.25,1.77,1.77,0,0,1,.44.25l.21.1a2.4,2.4,0,0,1,1.29,2,3.13,3.13,0,0,1-.14.9l-4.85,13.09a2.33,2.33,0,0,1-1.1,1.3l-1.75.9a2.72,2.72,0,0,1-1.1.25h-72a2.72,2.72,0,0,1-1.1-.25l-.7-.4a2.34,2.34,0,0,1-1.25-2,2.77,2.77,0,0,1,.15-.85c3.65-9.94,7.35-19.94,11.05-29.93L420,88.65Z"/>
        <path fill="#FFD700" d="M593.88,89.35a2.06,2.06,0,0,1,1-1.1l1.8-1a2.45,2.45,0,0,1,1-.25h19.89a2.07,2.07,0,0,1,1,.25l1,.5a2.09,2.09,0,0,1,1.1,1.75,2.49,2.49,0,0,1-.15.8l-24,64.9a2,2,0,0,1-1,1.1l-1.9,1a2.07,2.07,0,0,1-.95.25H553.26a2.1,2.1,0,0,1-1-.3L542.86,152a2,2,0,0,0-1-.25,1.66,1.66,0,0,0-.69.1l-15.74,5.65a1.76,1.76,0,0,1-.7.15H488.25a2.07,2.07,0,0,1-.95-.25l-1-.55a2,2,0,0,1-1.09-1.75,2.45,2.45,0,0,1,.14-.75l24-64.9a1.88,1.88,0,0,1,.95-1.1l1.9-1a2.45,2.45,0,0,1,1-.25h19.94a2.07,2.07,0,0,1,1,.25l1,.5a2,2,0,0,1,1.1,1.75,2.22,2.22,0,0,1-.15.75l-16.79,45.41a1.89,1.89,0,0,0,.25,1.9,2,2,0,0,0,1.65.85h11.14a2,2,0,0,0,2-1.35l11.19-30.23a1.85,1.85,0,0,1,.9-1l28-16a2.28,2.28,0,0,1,1.05-.25,1.85,1.85,0,0,1,1.3.5,1.8,1.8,0,0,1,.7,1.5,1.89,1.89,0,0,1-.1.74l-16.09,43.37a3.38,3.38,0,0,0-.1.7,2.29,2.29,0,0,0,.4,1.2,2,2,0,0,0,1.65.85h11.14a2,2,0,0,0,1.9-1.35Z"/>
      </g>
    </g>
    <path style="fill:#1a1a1a;" d="M204.94-.1,62.8.15a16,16,0,0,0-15,10.43L1,135.92a16.08,16.08,0,0,0,15,21.68h142.4a16,16,0,0,0,15-10.49L220,21.51A16,16,0,0,0,204.94-.1Z"/>
    <path style="fill:#FFD700; stroke:#1a1a1a; stroke-width:3px; paint-order: stroke fill;" d="M180.49,36.14l-7.05,19a4.12,4.12,0,0,1-2.2,2.27q-14.06,6.45-32.83,14.85a4.94,4.94,0,0,1-1.85.32,3.52,3.52,0,0,1-2.65-1.08,3.83,3.83,0,0,1-1.3-2.94,6.27,6.27,0,0,1,.19-1.49l1.78-4.79a4,4,0,0,0-.47-3.85,3.86,3.86,0,0,0-3.35-1.69H104.14a4.23,4.23,0,0,0-3.89,2.64l-13.32,36a3.4,3.4,0,0,0-.29,1.44,4,4,0,0,0,.83,2.39A3.84,3.84,0,0,0,90.82,101h26.61a4.18,4.18,0,0,0,3.89-2.74l1.79-5.07a3.86,3.86,0,0,1,2-2.26l1.85-1a4,4,0,0,1,2-.48l25.66-.06a3.77,3.77,0,0,1,1.91.48l.07.06a4.2,4.2,0,0,1,2.2,3.63,6.46,6.46,0,0,1-.23,1.44l-10.39,28.43a3.87,3.87,0,0,1-1.91,2.27l-1.85,1a4,4,0,0,1-2,.48H44.31a4,4,0,0,1-1.92-.48h-.06a4.16,4.16,0,0,1-2.17-3.54,7.71,7.71,0,0,1,.26-1.59L72.71,34.23a3.75,3.75,0,0,1,2-2.26l1.85-1a3.62,3.62,0,0,1,1.91-.48H176.5a4.08,4.08,0,0,1,2,.48h.07a4.07,4.07,0,0,1,2.1,3.57A6.77,6.77,0,0,1,180.49,36.14Z"/>
  </g>
</svg>
