<svg width="753" height="158" viewBox="0 0 753 158" fill="none" xmlns="http://www.w3.org/2000/svg">
<g clip-path="url(#clip0_413_38)">
<path d="M297.73 20.9202C297.057 20.9242 296.4 21.1291 295.845 21.5086C295.289 21.8881 294.859 22.4248 294.61 23.0502L283.93 51.8602C283.787 52.2266 283.716 52.617 283.72 53.0102C283.718 53.7045 283.946 54.38 284.37 54.9302C284.656 55.3801 285.055 55.7477 285.527 55.9967C285.998 56.2457 286.527 56.3675 287.06 56.3502H308.36C309.042 56.3484 309.706 56.1374 310.264 55.7458C310.822 55.3541 311.247 54.8007 311.48 54.1602L312.9 50.1602C313.03 49.7674 313.238 49.4047 313.511 49.0938C313.784 48.7829 314.117 48.53 314.49 48.3502L315.97 47.5302C316.458 47.2667 317.006 47.1356 317.56 47.1502L338.09 47.0002C338.628 46.9902 339.159 47.1212 339.63 47.3802L339.68 47.4402C340.206 47.7215 340.647 48.1391 340.957 48.6493C341.267 49.1594 341.433 49.7434 341.44 50.3402C341.43 50.7289 341.373 51.1151 341.27 51.4902L333 74.3102C332.743 75.0914 332.19 75.741 331.46 76.1202L329.99 76.8902C329.5 77.147 328.953 77.2776 328.4 77.2702H249.82C249.283 77.2718 248.754 77.1413 248.28 76.8902H248.23C247.71 76.6051 247.274 76.1878 246.967 75.6803C246.659 75.1729 246.492 74.5933 246.48 74.0002C246.505 73.5731 246.579 73.1503 246.7 72.7402L272.55 2.90017C272.674 2.50588 272.879 2.14156 273.151 1.83009C273.423 1.51861 273.756 1.2667 274.13 1.09017L275.61 0.330166C276.077 0.0694309 276.605 -0.0649859 277.14 -0.0598343H355.67C356.224 -0.0663185 356.771 0.067861 357.26 0.330166H357.32C357.83 0.610465 358.256 1.02306 358.551 1.52458C358.847 2.0261 359.002 2.598 359 3.18017C358.994 3.60544 358.937 4.02843 358.83 4.44017L353.19 19.6602C352.862 20.4669 352.235 21.1156 351.44 21.4702C343.933 24.9235 335.17 28.8835 325.15 33.3502C324.679 33.5366 324.176 33.6284 323.67 33.6202C323.274 33.6293 322.881 33.5568 322.514 33.4071C322.148 33.2574 321.816 33.0338 321.54 32.7502C321.213 32.4525 320.954 32.0873 320.781 31.6799C320.608 31.2725 320.526 30.8324 320.54 30.3902C320.543 29.985 320.597 29.5819 320.7 29.1902L322.12 25.3602C322.275 24.9551 322.35 24.5238 322.34 24.0902C322.331 23.4425 322.121 22.8136 321.74 22.2902C321.443 21.8419 321.034 21.4794 320.553 21.239C320.072 20.9986 319.537 20.8886 319 20.9202H297.73Z" fill="#FFD700"/>
<path d="M371 2.57C371.078 2.31312 371.206 2.0745 371.378 1.86834C371.55 1.66218 371.761 1.4927 372 1.37L374.08 0.27C374.389 0.106109 374.731 0.0138293 375.08 0L397.21 0C397.559 0.0138293 397.901 0.106109 398.21 0.27L399.21 0.82C399.578 1.00645 399.886 1.29311 400.098 1.64696C400.311 2.00081 400.419 2.40744 400.41 2.82C400.404 3.09655 400.367 3.37155 400.3 3.64L382 53.28C381.892 53.5401 381.834 53.8184 381.83 54.1C381.852 54.5722 382.004 55.0291 382.27 55.42C382.471 55.7131 382.741 55.9515 383.057 56.1139C383.373 56.2763 383.725 56.3574 384.08 56.35H406.64C407.098 56.3517 407.545 56.2099 407.918 55.9444C408.291 55.6789 408.572 55.3032 408.72 54.87L428.17 2.52C428.351 2.01188 428.705 1.58358 429.17 1.31L431.17 0.31C431.479 0.146109 431.821 0.0538293 432.17 0.04H454.17C454.548 0.0534945 454.919 0.145439 455.26 0.31L456.26 0.86C456.63 1.04505 456.94 1.33111 457.154 1.68506C457.368 2.03902 457.478 2.44638 457.47 2.86C457.459 3.13614 457.422 3.41063 457.36 3.68L430.96 74.82C430.789 75.3141 430.449 75.732 430 76L428 77C427.694 77.1725 427.351 77.2686 427 77.28H347.84C347.494 77.2827 347.153 77.2075 346.84 77.06L345.75 76.46C345.4 76.2722 345.105 75.9962 344.895 75.6595C344.684 75.3227 344.565 74.9368 344.55 74.54C344.554 74.2431 344.608 73.9489 344.71 73.67L371 2.57Z" fill="#FFD700"/>
<path d="M467.32 20.9201C466.765 20.9302 466.217 20.7958 465.73 20.5301H465.68C465.164 20.2514 464.731 19.8426 464.422 19.3444C464.113 18.8462 463.94 18.2759 463.92 17.6901C463.944 17.263 464.018 16.8401 464.14 16.4301L469.14 2.96011C469.266 2.56491 469.472 2.20003 469.745 1.88849C470.019 1.57696 470.354 1.32554 470.73 1.15011L472.2 0.380112C472.685 0.11831 473.229 -0.0126603 473.78 0.000111987H552.26C552.814 -0.0144115 553.362 0.116612 553.85 0.380112C554.367 0.67458 554.799 1.09685 555.105 1.60643C555.412 2.116 555.582 2.69577 555.6 3.29011C555.593 3.69562 555.536 4.09873 555.43 4.49011L549.74 19.7701C549.483 20.5181 548.955 21.1425 548.26 21.5201C546.26 22.6201 544.26 23.7101 542.18 24.8601C527.453 33.1334 512.393 41.5301 497 50.0501C496 50.6601 495.47 51.2001 495.41 51.8101C495.35 52.4201 495.3 52.8101 495.3 52.9601C495.317 53.7351 495.588 54.4832 496.07 55.0901C496.371 55.4973 496.77 55.8218 497.229 56.0333C497.689 56.2449 498.195 56.3367 498.7 56.3001L531.28 56.3501C531.853 56.3356 532.421 56.4663 532.93 56.7301L532.98 56.7901C533.494 57.0678 533.923 57.4792 534.223 57.9809C534.522 58.4826 534.68 59.0559 534.68 59.6401C534.674 60.0654 534.617 60.4884 534.51 60.9001L529.51 74.3101C529.384 74.7053 529.178 75.0702 528.905 75.3817C528.631 75.6933 528.296 75.9447 527.92 76.1201L526.44 76.8901C525.973 77.1509 525.445 77.2821 524.91 77.2701H446.4C445.866 77.2726 445.34 77.142 444.87 76.8901C444.336 76.6163 443.886 76.2031 443.567 75.6944C443.248 75.1856 443.073 74.6002 443.06 74.0001C443.085 73.5928 443.159 73.1899 443.28 72.8001L449 57.4501C449.257 56.6994 449.784 56.0716 450.48 55.6901L501.14 27.2201C502.14 26.6101 502.67 26.0101 502.78 25.4101C502.89 24.8101 502.89 24.4101 502.89 24.2601C502.869 23.5011 502.598 22.7702 502.12 22.1801C501.822 21.7693 501.427 21.439 500.969 21.2191C500.512 20.9991 500.007 20.8964 499.5 20.9201H467.32Z" fill="#FFD700"/>
<path d="M564.52 20.92C563.965 20.9314 563.417 20.797 562.93 20.53H562.87C562.356 20.2507 561.923 19.8416 561.616 19.3433C561.309 18.845 561.138 18.275 561.12 17.69C561.144 17.2628 561.218 16.84 561.34 16.43L566.34 2.95999C566.469 2.5664 566.676 2.20304 566.949 1.89192C567.223 1.5808 567.556 1.3284 567.93 1.14998L569.41 0.379985C569.897 0.11425 570.446 -0.0169191 571 -1.49942e-05H649.47C650.004 -0.005519 650.531 0.12527 651 0.379985C651.517 0.674453 651.949 1.09673 652.255 1.6063C652.562 2.11587 652.732 2.69564 652.75 3.28998C652.747 3.6951 652.693 4.09826 652.59 4.48998L646.89 19.77C646.64 20.522 646.11 21.1488 645.41 21.52C643.41 22.62 641.36 23.71 639.33 24.86C624.597 33.1333 609.54 41.53 594.16 50.05C593.16 50.66 592.62 51.2 592.57 51.81C592.52 52.42 592.46 52.81 592.46 52.96C592.473 53.7341 592.74 54.4825 593.22 55.09C593.524 55.4931 593.924 55.8145 594.383 56.0257C594.842 56.2368 595.346 56.331 595.85 56.3L628.44 56.35C629.01 56.3341 629.575 56.4649 630.08 56.73L630.14 56.79C630.653 57.0681 631.081 57.48 631.378 57.9818C631.676 58.4836 631.832 59.0566 631.83 59.64C631.827 60.0649 631.774 60.4879 631.67 60.9L626.67 74.31C626.546 74.7043 626.341 75.0686 626.069 75.3801C625.797 75.6915 625.464 75.9435 625.09 76.12L623.61 76.89C623.139 77.1489 622.608 77.2799 622.07 77.27H543.59C543.057 77.2712 542.531 77.1407 542.06 76.89C541.525 76.6123 541.076 76.1953 540.759 75.683C540.442 75.1707 540.27 74.5823 540.26 73.98C540.281 73.573 540.352 73.17 540.47 72.78L546.17 57.45C546.423 56.6973 546.952 56.0684 547.65 55.69L598.3 27.22C599.3 26.61 599.84 26.01 599.95 25.41C600.06 24.81 600.05 24.41 600.05 24.26C600.028 23.5028 599.761 22.7731 599.29 22.18C598.99 21.769 598.592 21.4389 598.134 21.219C597.675 20.9991 597.168 20.8964 596.66 20.92H564.52Z" fill="#FFD700"/>
<path d="M651.86 47.1001C651.305 47.1115 650.757 46.9771 650.27 46.7101C649.733 46.4372 649.281 46.0229 648.962 45.5118C648.643 45.0008 648.469 44.4124 648.46 43.8101C648.46 43.3805 648.534 42.9542 648.68 42.5501L663.3 3.00008C663.577 2.21427 664.146 1.56578 664.89 1.19008L666.37 0.370079C666.867 0.0871852 667.428 -0.0610438 668 -0.0599211H689.35C689.888 -0.0649752 690.419 0.06938 690.89 0.330079C691.41 0.617568 691.846 1.03685 692.153 1.54585C692.46 2.05486 692.628 2.63569 692.64 3.23008C692.634 3.65535 692.577 4.07835 692.47 4.49008L686.12 21.6301C685.919 22.1441 685.854 22.7013 685.931 23.2478C686.008 23.7943 686.225 24.3117 686.56 24.7501C686.859 25.1962 687.269 25.557 687.749 25.7972C688.229 26.0373 688.764 26.1486 689.3 26.1201H709.61C710.292 26.1161 710.957 25.9044 711.516 25.5132C712.076 25.122 712.502 24.5698 712.74 23.9301L720.57 2.93008C720.699 2.53649 720.906 2.17314 721.179 1.86202C721.453 1.5509 721.786 1.29849 722.16 1.12008L723.63 0.360079C724.101 0.09938 724.632 -0.0349752 725.17 -0.0299211H746.53C747.08 -0.0281652 747.622 0.105577 748.11 0.360079C748.63 0.643447 749.063 1.06313 749.363 1.57407C749.662 2.085 749.817 2.66787 749.81 3.26008C749.807 3.68497 749.754 4.10801 749.65 4.52008L748.28 8.24008L734.93 44.1401C734.662 44.943 734.091 45.6101 733.34 46.0001L731.92 46.7601C731.431 47.0204 730.884 47.1544 730.33 47.1501H707.22C706.535 47.1385 705.864 47.3442 705.304 47.7377C704.743 48.1312 704.322 48.6921 704.1 49.3401L694.84 74.3401C694.567 75.1247 694 75.7732 693.26 76.1501L691.83 76.9201C691.338 77.1727 690.793 77.303 690.24 77.3001H669.65C668.763 77.3108 667.908 76.9694 667.273 76.3508C666.637 75.7322 666.273 74.8868 666.26 74.0001C666.255 73.5701 666.33 73.1429 666.48 72.7401L674.25 51.6601C674.36 51.249 674.417 50.8256 674.42 50.4001C674.428 49.9662 674.349 49.5352 674.186 49.1329C674.023 48.7306 673.781 48.3653 673.474 48.059C673.167 47.7526 672.801 47.5115 672.398 47.3502C671.995 47.1888 671.564 47.1106 671.13 47.1201L651.86 47.1001Z" fill="#FFD700"/>
<path d="M263.38 106.18C262.764 106.182 262.163 106.369 261.655 106.717C261.147 107.064 260.755 107.557 260.53 108.13L250.79 134.42C250.661 134.738 250.593 135.077 250.59 135.42C250.59 136.054 250.801 136.67 251.19 137.17C251.45 137.582 251.812 137.918 252.242 138.146C252.672 138.374 253.154 138.486 253.64 138.47H273.08C273.702 138.473 274.31 138.281 274.819 137.923C275.328 137.565 275.713 137.057 275.92 136.47L277.22 132.77C277.339 132.413 277.528 132.084 277.777 131.802C278.027 131.52 278.33 131.292 278.67 131.13L280.02 130.38C280.466 130.143 280.965 130.023 281.47 130.03H300.21C300.696 130.02 301.176 130.141 301.6 130.38H301.66C302.141 130.636 302.542 131.018 302.822 131.485C303.103 131.952 303.25 132.486 303.25 133.03C303.239 133.368 303.188 133.704 303.1 134.03L295.51 154.82C295.277 155.532 294.774 156.124 294.11 156.47L292.76 157.17C292.314 157.407 291.815 157.528 291.31 157.52H219.66C219.171 157.523 218.69 157.403 218.26 157.17C217.788 156.916 217.392 156.541 217.111 156.085C216.83 155.628 216.675 155.106 216.66 154.57C216.683 154.181 216.747 153.796 216.85 153.42L240.4 89.7503C240.517 89.3912 240.706 89.0597 240.955 88.776C241.204 88.4923 241.509 88.2624 241.85 88.1003L243.2 87.4003C243.628 87.162 244.111 87.0412 244.6 87.0503H316.25C316.752 87.0447 317.247 87.165 317.69 87.4003H317.74C318.206 87.6573 318.595 88.0336 318.867 88.4905C319.139 88.9473 319.285 89.4684 319.29 90.0003C319.286 90.3882 319.235 90.7742 319.14 91.1503L314 105C313.855 105.367 313.639 105.701 313.364 105.985C313.09 106.268 312.762 106.494 312.4 106.65C305.553 109.79 297.553 113.404 288.4 117.49C287.974 117.661 287.519 117.746 287.06 117.74C286.697 117.748 286.337 117.681 286.002 117.543C285.666 117.406 285.363 117.2 285.11 116.94C284.804 116.673 284.561 116.342 284.397 115.971C284.232 115.599 284.152 115.196 284.16 114.79C284.164 114.419 284.214 114.049 284.31 113.69L285.61 110.19C285.749 109.823 285.817 109.433 285.81 109.04C285.804 108.446 285.611 107.869 285.26 107.39C284.994 106.989 284.628 106.663 284.199 106.444C283.77 106.225 283.291 106.12 282.81 106.14L263.38 106.18Z" fill="#FFD700"/>
<path d="M332.83 87.3499C333.198 87.1581 333.605 87.0554 334.02 87.0499H405.87C406.305 87.047 406.734 87.1499 407.12 87.3499L407.57 87.5999C407.99 87.8198 408.343 88.1501 408.589 88.5554C408.836 88.9606 408.968 89.4255 408.97 89.8999C408.969 90.206 408.918 90.51 408.82 90.7999L395.18 127.62C395.073 127.917 394.907 128.19 394.692 128.422C394.477 128.654 394.218 128.84 393.93 128.97L392.48 129.77C392.11 129.964 391.698 130.067 391.28 130.07H375.45C375.052 130.049 374.654 130.13 374.296 130.304C373.937 130.479 373.629 130.743 373.4 131.07C373.086 131.53 372.897 132.064 372.85 132.62C372.878 133.069 372.997 133.508 373.2 133.91L384.54 153.75C384.776 154.123 384.898 154.558 384.89 155C384.896 155.328 384.828 155.652 384.69 155.95C384.506 156.437 384.178 156.856 383.749 157.151C383.32 157.446 382.811 157.603 382.29 157.6H360.06C359.613 157.589 359.176 157.464 358.791 157.236C358.406 157.009 358.085 156.686 357.86 156.3L345 134.22C344.766 133.83 344.437 133.506 344.043 133.279C343.649 133.051 343.205 132.928 342.75 132.92H342.55C342.061 132.965 341.595 133.148 341.206 133.447C340.816 133.746 340.52 134.149 340.35 134.61L332.76 155.1C332.551 155.701 332.122 156.202 331.56 156.5L330.06 157.3C329.689 157.493 329.278 157.596 328.86 157.6H309.24C308.799 157.602 308.366 157.481 307.99 157.25L307.49 157C307.102 156.777 306.779 156.457 306.553 156.071C306.327 155.685 306.205 155.247 306.2 154.8C306.202 154.462 306.249 154.125 306.34 153.8L330 89.5999C330.213 89.0008 330.641 88.502 331.2 88.1999L332.83 87.3499ZM344.72 122.87C344.625 123.195 344.574 123.531 344.57 123.87C344.566 124.227 344.645 124.58 344.802 124.901C344.958 125.222 345.187 125.503 345.47 125.72C345.91 126.119 346.477 126.349 347.07 126.37C347.522 126.342 347.965 126.223 348.37 126.02L374.85 111.02C375.603 110.573 376.003 110.123 376.05 109.67C376.1 109.22 376.14 108.97 376.14 108.82C376.139 108.203 375.931 107.605 375.55 107.12C375.32 106.812 375.016 106.568 374.667 106.411C374.317 106.254 373.932 106.188 373.55 106.22H352.61C352.084 106.224 351.572 106.389 351.143 106.693C350.714 106.997 350.388 107.425 350.21 107.92L344.72 122.87Z" fill="#FFD700"/>
<path d="M422.51 87.2998C422.869 87.1406 423.257 87.0556 423.65 87.0498H495.65C496.046 87.0564 496.437 87.1414 496.8 87.2998L497.45 87.6498C497.814 87.8458 498.121 88.1334 498.34 88.4841C498.559 88.8348 498.683 89.2366 498.7 89.6498C498.699 89.9559 498.648 90.2599 498.55 90.5498L493.7 103.64C493.616 103.913 493.474 104.165 493.285 104.379C493.095 104.593 492.861 104.764 492.6 104.88L490.96 105.83C490.598 105.992 490.207 106.08 489.81 106.09H442.44C441.953 106.09 441.478 106.244 441.083 106.529C440.688 106.815 440.393 107.217 440.24 107.68C440.142 107.97 440.091 108.274 440.09 108.58C440.075 109.046 440.216 109.503 440.49 109.88C440.703 110.199 440.994 110.458 441.335 110.633C441.676 110.808 442.057 110.893 442.44 110.88H482C482.344 110.846 482.69 110.903 483.005 111.043C483.321 111.183 483.594 111.402 483.8 111.68C484.172 112.151 484.383 112.73 484.4 113.33V113.63C484.341 113.985 484.203 114.323 483.995 114.617C483.787 114.912 483.515 115.155 483.2 115.33L458.12 129.67C457.753 129.874 457.339 129.977 456.92 129.97H447.83C445.43 129.97 440.68 129.97 433.59 129.97C433.109 129.973 432.641 130.123 432.247 130.4C431.854 130.678 431.555 131.068 431.39 131.52L430 135.21C429.902 135.483 429.851 135.77 429.85 136.06C429.854 136.546 430.011 137.019 430.3 137.41C430.513 137.729 430.804 137.988 431.145 138.163C431.486 138.338 431.867 138.423 432.25 138.41C441.09 138.41 449.89 138.41 458.53 138.46C464.47 138.46 470.47 138.46 476.53 138.46C476.926 138.466 477.317 138.551 477.68 138.71C477.838 138.772 477.986 138.856 478.12 138.96L478.33 139.06C478.7 139.252 479.014 139.538 479.24 139.889C479.467 140.239 479.597 140.643 479.62 141.06C479.617 141.365 479.57 141.668 479.48 141.96L474.63 155.05C474.44 155.606 474.048 156.071 473.53 156.35L471.78 157.25C471.435 157.409 471.06 157.494 470.68 157.5H398.68C398.3 157.494 397.925 157.409 397.58 157.25L396.88 156.85C396.513 156.657 396.204 156.37 395.985 156.019C395.765 155.667 395.643 155.264 395.63 154.85C395.635 154.56 395.686 154.274 395.78 154C399.43 144.06 403.13 134.06 406.83 124.07L420 88.6498L422.51 87.2998Z" fill="#FFD700"/>
<path d="M593.88 89.35C594.065 88.8717 594.421 88.4795 594.88 88.25L596.68 87.25C596.992 87.0967 597.333 87.0115 597.68 87H617.57C617.919 86.9977 618.263 87.0837 618.57 87.25L619.57 87.75C619.889 87.9213 620.159 88.1727 620.352 88.4795C620.544 88.7863 620.654 89.138 620.67 89.5C620.664 89.7731 620.614 90.0434 620.52 90.3L596.52 155.2C596.34 155.682 595.982 156.075 595.52 156.3L593.62 157.3C593.328 157.458 593.002 157.544 592.67 157.55H553.26C552.907 157.536 552.563 157.433 552.26 157.25L542.86 152C542.554 151.831 542.209 151.745 541.86 151.75C541.625 151.734 541.39 151.768 541.17 151.85L525.43 157.5C525.209 157.597 524.971 157.649 524.73 157.65H488.25C487.918 157.644 487.592 157.558 487.3 157.4L486.3 156.85C485.977 156.685 485.704 156.435 485.512 156.126C485.32 155.818 485.216 155.463 485.21 155.1C485.217 154.844 485.264 154.591 485.35 154.35L509.35 89.45C509.427 89.2128 509.551 88.9934 509.714 88.8045C509.877 88.6157 510.077 88.4612 510.3 88.35L512.2 87.35C512.512 87.1967 512.853 87.1115 513.2 87.1H533.14C533.489 87.0977 533.833 87.1837 534.14 87.35L535.14 87.85C535.465 88.0139 535.74 88.2635 535.934 88.5719C536.127 88.8803 536.233 89.2358 536.24 89.6C536.234 89.8568 536.183 90.1106 536.09 90.35L519.3 135.76C519.169 136.07 519.122 136.41 519.166 136.744C519.21 137.078 519.343 137.394 519.55 137.66C519.736 137.925 519.983 138.14 520.27 138.288C520.558 138.436 520.877 138.512 521.2 138.51H532.34C532.775 138.533 533.206 138.414 533.567 138.171C533.928 137.927 534.199 137.572 534.34 137.16L545.53 106.93C545.694 106.496 546.015 106.139 546.43 105.93L574.43 89.93C574.755 89.7639 575.115 89.6781 575.48 89.68C575.962 89.671 576.428 89.8504 576.78 90.18C577.008 90.3558 577.191 90.5838 577.313 90.8448C577.434 91.1058 577.492 91.3923 577.48 91.68C577.496 91.9309 577.462 92.1825 577.38 92.42L561.29 135.79C561.232 136.019 561.199 136.254 561.19 136.49C561.208 136.92 561.347 137.336 561.59 137.69C561.776 137.955 562.023 138.17 562.31 138.318C562.598 138.466 562.917 138.542 563.24 138.54H574.38C574.798 138.542 575.206 138.413 575.547 138.17C575.888 137.928 576.144 137.585 576.28 137.19L593.88 89.35Z" fill="#FFD700"/>
<path d="M204.94 -0.099918L62.8 0.150082C59.5341 0.149913 56.3464 1.14917 53.665 3.01364C50.9836 4.8781 48.9369 7.51847 47.8 10.5801L1 135.92C0.0987182 138.346 -0.203746 140.954 0.118298 143.521C0.440343 146.089 1.37738 148.541 2.84982 150.669C4.32226 152.797 6.2866 154.539 8.57598 155.745C10.8654 156.952 13.4121 157.588 16 157.6H158.4C161.673 157.596 164.866 156.588 167.548 154.712C170.23 152.836 172.273 150.183 173.4 147.11L220 21.5101C220.909 19.0836 221.214 16.4727 220.891 13.902C220.567 11.3313 219.624 8.87757 218.143 6.75184C216.661 4.62611 214.686 2.89195 212.386 1.69845C210.086 0.504946 207.531 -0.112195 204.94 -0.099918Z" fill="#FFF3E0"/>
<path d="M180.49 36.1403L173.44 55.1403C173.241 55.6449 172.944 56.1052 172.566 56.4947C172.189 56.8843 171.738 57.1954 171.24 57.4103C161.867 61.7103 150.923 66.6603 138.41 72.2603C137.819 72.4843 137.191 72.5929 136.56 72.5803C136.067 72.5959 135.577 72.5078 135.12 72.3218C134.664 72.1357 134.251 71.8559 133.91 71.5003C133.493 71.1337 133.161 70.681 132.937 70.1733C132.712 69.6657 132.601 69.1153 132.61 68.5603C132.613 68.0578 132.677 67.5576 132.8 67.0703L134.58 62.2803C134.835 61.6514 134.925 60.9681 134.843 60.2945C134.761 59.621 134.508 58.9795 134.11 58.4303C133.741 57.887 133.24 57.4466 132.654 57.1509C132.068 56.8552 131.416 56.7139 130.76 56.7403H104.14C103.303 56.7462 102.487 57.0002 101.794 57.4701C101.102 57.9401 100.565 58.6048 100.25 59.3803L86.93 95.3803C86.7296 95.8335 86.6306 96.3249 86.64 96.8203C86.6508 97.6858 86.942 98.5244 87.47 99.2103C87.8253 99.7735 88.3209 100.235 88.9082 100.549C89.4955 100.862 90.1543 101.018 90.82 101H117.43C118.28 100.993 119.108 100.727 119.803 100.238C120.498 99.7483 121.027 99.0584 121.32 98.2603L123.11 93.1903C123.274 92.6986 123.536 92.2451 123.88 91.8568C124.224 91.4685 124.642 91.1534 125.11 90.9303L126.96 89.9303C127.573 89.5987 128.263 89.4333 128.96 89.4503L154.62 89.3903C155.288 89.3783 155.947 89.5439 156.53 89.8703L156.6 89.9303C157.256 90.2855 157.806 90.809 158.192 91.447C158.579 92.0849 158.789 92.8144 158.8 93.5603C158.778 94.0475 158.701 94.5305 158.57 95.0003L148.18 123.43C148.027 123.916 147.779 124.366 147.451 124.756C147.123 125.145 146.722 125.466 146.27 125.7L144.42 126.7C143.807 127.032 143.117 127.197 142.42 127.18H44.31C43.6399 127.184 42.9797 127.019 42.39 126.7H42.33C41.6899 126.352 41.1526 125.842 40.7718 125.22C40.3909 124.599 40.18 123.889 40.16 123.16C40.1909 122.623 40.278 122.09 40.42 121.57L72.71 34.2303C72.8686 33.7356 73.1283 33.2793 73.4726 32.8903C73.8169 32.5012 74.2383 32.1879 74.71 31.9703L76.56 30.9703C77.1401 30.6369 77.8012 30.4707 78.47 30.4903H176.5C177.197 30.4769 177.885 30.6422 178.5 30.9703H178.57C179.208 31.323 179.739 31.8403 180.108 32.4682C180.477 33.0962 180.672 33.8118 180.67 34.5403C180.674 35.0789 180.613 35.616 180.49 36.1403Z" fill="#FFD700" stroke="#1A1A1A" stroke-width="3"/>
</g>
<defs>
<clipPath id="clip0_413_38">
<rect width="752.51" height="157.6" fill="white"/>
</clipPath>
</defs>
</svg>
